name Walk9.mot
datacolumns 19
datarows 20
range 2.05500000 2.15000000
endheader

                time	   L_ground_force_vx	   L_ground_force_vy	   L_ground_force_vz	   L_ground_force_px	   L_ground_force_py	   L_ground_force_pz	   R_ground_force_vx	   R_ground_force_vy	   R_ground_force_vz	   R_ground_force_px	   R_ground_force_py	   R_ground_force_pz	   L_ground_torque_x	   L_ground_torque_y	   L_ground_torque_z	   R_ground_torque_x	   R_ground_torque_y	   R_ground_torque_z	
          2.05500000	          3.85647956	         34.07313492	         -1.24429497	          0.00386486	          0.00000000	          0.00163397	         -0.00000000	          0.00000000	          0.00000000	          0.00000000	          0.00000000	          0.00000000	          0.00000000	         -0.07016492	          0.00000000	          0.00000000	         -0.00000000	          0.00000000	
          2.06000000	          5.24195851	         57.68807551	         -1.48871568	         -0.10341156	          0.00000000	         -0.00998466	         -0.00000000	          0.00000000	          0.00000000	          0.00000000	          0.00000000	          0.00000000	          0.00000000	         -0.11047432	          0.00000000	          0.00000000	         -0.00000000	          0.00000000	
          2.06500000	          5.57171861	         83.41834666	         -1.96895661	         -0.20244179	          0.00000000	         -0.02060763	         -0.00000000	          0.00000000	          0.00000000	          0.00000000	          0.00000000	          0.00000000	          0.00000000	         -0.14085893	          0.00000000	          0.00000000	         -0.00000000	          0.00000000	
          2.07000000	          4.48040969	        110.19803908	         -2.69499603	         -0.28817911	          0.00000000	         -0.02969702	         -0.00000000	          0.00000000	          0.00000000	          0.00000000	          0.00000000	          0.00000000	          0.00000000	         -0.15616463	          0.00000000	          0.00000000	         -0.00000000	          0.00000000	
          2.07500000	          1.76361865	        137.07074739	         -3.61631293	         -0.35845081	          0.00000000	         -0.03704437	         -0.00000000	          0.00000000	          0.00000000	          0.00000000	          0.00000000	          0.00000000	          0.00000000	         -0.15265525	          0.00000000	          0.00000000	         -0.00000000	          0.00000000	
          2.08000000	         -2.52422375	        163.49394658	         -4.62515012	         -0.41310213	          0.00000000	         -0.04267267	         -0.00000000	          0.00000000	          0.00000000	          0.00000000	          0.00000000	          0.00000000	          0.00000000	         -0.12850520	          0.00000000	          0.00000000	          0.00000000	          0.00000000	
          2.08500000	         -8.07160710	        189.26109109	         -5.59119966	         -0.45328718	          0.00000000	         -0.04675389	         -0.00000000	          0.00000000	         -0.00000000	         -0.00000000	          0.00000000	         -0.00000000	          0.00000000	         -0.08388414	          0.00000000	          0.00000000	          0.00000000	          0.00000000	
          2.09000000	        -14.37371434	        214.28061197	         -6.39491317	         -0.48091051	          0.00000000	         -0.04953250	         -0.00000000	         -0.00000000	         -0.00000000	         -0.00000000	          0.00000000	         -0.00000000	          0.00000000	         -0.02151124	          0.00000000	          0.00000000	          0.00000000	          0.00000000	
          2.09500000	        -20.81018264	        238.46762034	         -6.94659450	         -0.49820308	          0.00000000	         -0.05127439	         -0.00000000	         -0.00000000	         -0.00000000	         -0.00000000	          0.00000000	         -0.00000000	          0.00000000	          0.05269431	          0.00000000	          0.00000000	          0.00000000	          0.00000000	
          2.10000000	        -26.75337619	        261.75068634	         -7.19161771	         -0.50741868	          0.00000000	         -0.05223724	         -0.00000000	         -0.00000001	         -0.00000000	         -0.00000000	          0.00000000	         -0.00000000	          0.00000000	          0.12989974	          0.00000000	          0.00000000	          0.00000000	          0.00000000	
          2.10500000	        -31.71574314	        284.10087357	         -7.09757978	         -0.51063998	          0.00000000	         -0.05265401	         -0.00000000	         -0.00000001	         -0.00000000	         -0.00000000	          0.00000000	         -0.00000000	          0.00000000	          0.19988710	          0.00000000	          0.00000000	          0.00000000	          0.00000000	
          2.11000000	        -35.49298028	        305.53339856	         -6.62484531	         -0.50966396	          0.00000000	         -0.05272416	          0.00000000	         -0.00000002	         -0.00000000	         -0.00000000	          0.00000000	         -0.00000000	          0.00000000	          0.25321718	          0.00000000	          0.00000000	          0.00000000	          0.00000000	
          2.11500000	        -38.21376084	        326.09786074	         -5.71283440	         -0.50595081	          0.00000000	         -0.05260883	          0.00000000	         -0.00000003	         -0.00000000	         -0.00000000	          0.00000000	         -0.00000000	          0.00000000	          0.28302158	          0.00000000	          0.00000000	          0.00000000	          0.00000000	
          2.12000000	        -40.23996857	        345.89971489	         -4.30325722	         -0.50062423	          0.00000000	         -0.05243074	          0.00000000	         -0.00000003	         -0.00000000	         -0.00000000	          0.00000000	         -0.00000000	          0.00000000	          0.28610533	          0.00000000	          0.00000000	          0.00000000	          0.00000000	
          2.12500000	        -41.98797099	        365.15547459	         -2.37173512	         -0.49450508	          0.00000000	         -0.05227763	          0.00000000	         -0.00000004	         -0.00000000	         -0.00000000	          0.00000000	         -0.00000000	          0.00000000	          0.26312597	          0.00000000	          0.00000000	          0.00000000	          0.00000000	
          2.13000000	        -43.78804831	        384.22281899	          0.05743638	         -0.48816191	          0.00000000	         -0.05220601	          0.00000000	         -0.00000005	         -0.00000001	         -0.00000000	          0.00000000	         -0.00000000	          0.00000000	          0.21855147	          0.00000000	          0.00000000	          0.00000000	          0.00000000	
          2.13500000	        -45.83621617	        403.55584476	          2.91016298	         -0.48196496	          0.00000000	         -0.05224640	          0.00000001	         -0.00000005	         -0.00000001	         -0.00000000	          0.00000000	         -0.00000000	          0.00000000	          0.16056047	          0.00000000	          0.00000000	          0.00000000	          0.00000000	
          2.14000000	        -48.21963628	        423.58867865	          6.06332729	         -0.47613856	          0.00000000	         -0.05240609	          0.00000001	         -0.00000006	         -0.00000001	         -0.00000000	          0.00000000	         -0.00000000	          0.00000000	          0.10093393	          0.00000000	          0.00000000	          0.00000000	          0.00000000	
          2.14500000	        -50.96150847	        444.59330116	          9.34586025	         -0.47081202	          0.00000000	         -0.05266941	          0.00000001	         -0.00000005	         -0.00000000	         -0.00000000	          0.00000000	         -0.00000000	          0.00000000	          0.05454049	          0.00000000	          0.00000000	          0.00000000	          0.00000000	
          2.15000000	        -54.03688044	        466.61241996	         12.55704270	         -0.46605112	          0.00000000	         -0.05300257	          0.00000001	         -0.00000004	         -0.00000000	         -0.00000000	          0.00000000	         -0.00000000	          0.00000000	          0.03623994	          0.00000000	          0.00000000	         -0.00000000	          0.00000000	
